<?xml version="1.0" encoding="UTF-8" standalone="no"?>
<!-- Generator: Adobe Illustrator 22.0.1, SVG Export Plug-In . SVG Version: 6.00 Build 0)  -->

<svg
   version="1.1"
   id="Layer_1"
   x="0px"
   y="0px"
   width="443px"
   height="138.46px"
   viewBox="0 0 443 138.46"
   enable-background="new 0 0 443 138.46"
   xml:space="preserve"
   sodipodi:docname="white.svg"
   inkscape:version="1.1.2 (0a00cf5339, 2022-02-04)"
   xmlns:inkscape="http://www.inkscape.org/namespaces/inkscape"
   xmlns:sodipodi="http://sodipodi.sourceforge.net/DTD/sodipodi-0.dtd"
   xmlns="http://www.w3.org/2000/svg"
   xmlns:svg="http://www.w3.org/2000/svg"><defs
   id="defs38" /><sodipodi:namedview
   id="namedview36"
   pagecolor="#ffffff"
   bordercolor="#666666"
   borderopacity="1.0"
   inkscape:pageshadow="2"
   inkscape:pageopacity="0.0"
   inkscape:pagecheckerboard="0"
   showgrid="false"
   inkscape:zoom="2.9683973"
   inkscape:cx="143.84867"
   inkscape:cy="69.229278"
   inkscape:window-width="1920"
   inkscape:window-height="1006"
   inkscape:window-x="0"
   inkscape:window-y="38"
   inkscape:window-maximized="1"
   inkscape:current-layer="Layer_1" />
<g
   id="g33"
   transform="matrix(0.30198563,0,0,0.38159349,-0.30270006,0.08069149)">
	<path
   fill="#ffffff"
   d="m 209.04,21.15 h 27.55 c 9.35,0 17.51,1.93 24.49,5.8 6.97,3.87 12.33,9.25 16.07,16.13 3.74,6.89 5.61,14.79 5.61,23.72 0,8.93 -1.87,16.83 -5.61,23.72 -3.74,6.89 -9.1,12.26 -16.07,16.13 -6.97,3.87 -15.13,5.8 -24.49,5.8 h -27.55 z m 27.55,80.99 c 10.8,0 19.36,-3.1 25.7,-9.31 6.33,-6.21 9.5,-14.88 9.5,-26.02 0,-11.14 -3.17,-19.81 -9.5,-26.02 -6.33,-6.21 -14.9,-9.31 -25.7,-9.31 h -16.83 v 70.65 h 16.83 z"
   id="path2" />
	<path
   fill="#ffffff"
   d="m 299.46,111.7 c -3.74,-1.87 -6.63,-4.44 -8.67,-7.72 -2.04,-3.27 -3.06,-6.99 -3.06,-11.16 0,-6.89 2.59,-12.26 7.78,-16.13 5.18,-3.87 11.73,-5.8 19.64,-5.8 3.91,0 7.54,0.43 10.9,1.28 3.36,0.85 5.93,1.83 7.72,2.93 v -3.95 c 0,-4.85 -1.7,-8.74 -5.1,-11.67 -3.4,-2.93 -7.7,-4.4 -12.88,-4.4 -3.66,0 -7.01,0.79 -10.08,2.36 -3.06,1.57 -5.48,3.76 -7.27,6.57 l -8.16,-6.12 c 2.55,-3.91 6.06,-6.97 10.52,-9.18 4.46,-2.21 9.42,-3.32 14.86,-3.32 8.84,0 15.79,2.32 20.85,6.95 5.06,4.64 7.59,10.95 7.59,18.94 v 41.19 h -10.34 v -9.31 h -0.51 c -1.87,3.15 -4.68,5.82 -8.42,8.03 -3.74,2.21 -7.95,3.32 -12.63,3.32 -4.75,0 -9,-0.94 -12.74,-2.81 z m 23.97,-9.56 c 3.14,-1.87 5.65,-4.38 7.52,-7.52 1.87,-3.14 2.81,-6.59 2.81,-10.33 -2.04,-1.36 -4.55,-2.47 -7.52,-3.32 -2.98,-0.85 -6.12,-1.28 -9.44,-1.28 -5.95,0 -10.44,1.23 -13.45,3.7 -3.02,2.47 -4.53,5.66 -4.53,9.56 0,3.57 1.36,6.46 4.08,8.67 2.72,2.21 6.16,3.32 10.33,3.32 3.66,0 7.06,-0.93 10.2,-2.8 z"
   id="path4" />
	<path
   fill="#ffffff"
   d="m 355.53,48.45 h 10.33 v 10.33 h 0.51 c 1.53,-3.83 4.12,-6.8 7.78,-8.93 3.65,-2.12 7.65,-3.19 11.99,-3.19 1.87,0 3.44,0.13 4.72,0.38 v 11.1 c -1.45,-0.34 -3.4,-0.51 -5.87,-0.51 -5.53,0 -10.01,1.83 -13.45,5.48 -3.44,3.66 -5.17,8.42 -5.17,14.28 v 36.09 h -10.84 z m 67.32,64.76 c -2.25,-0.86 -4.14,-2.03 -5.68,-3.51 -1.7,-1.64 -2.98,-3.55 -3.83,-5.71 -0.85,-2.16 -1.28,-4.8 -1.28,-7.92 V 57.25 h -11.35 v -9.82 h 11.35 V 29.07 h 10.84 v 18.36 h 15.81 v 9.82 H 422.9 v 36.24 c 0,3.65 0.68,6.34 2.04,8.08 1.61,1.91 3.95,2.87 7.01,2.87 2.46,0 4.85,-0.72 7.14,-2.17 v 10.59 c -1.28,0.59 -2.57,1.02 -3.89,1.28 -1.32,0.26 -3,0.38 -5.04,0.38 -2.61,-0.01 -5.05,-0.45 -7.31,-1.31 z"
   id="path6" />
	<g
   id="g31">
		<path
   fill="#01579b"
   d="M 31.65,109.5 8.38,86.23 C 5.62,83.4 3.91,79.4 3.91,75.49 3.91,73.68 4.93,70.85 5.7,69.23 L 27.18,24.49 Z"
   id="path8" />
		<path
   fill="#40c4ff"
   d="M 111.3,28.96 88.03,5.69 C 86,3.65 81.77,1.22 78.19,1.22 c -3.08,0 -6.1,0.62 -8.05,1.79 L 27.19,24.49 Z"
   id="path10" />
		<polygon
   fill="#40c4ff"
   points="59.39,137.24 115.77,137.24 115.77,113.08 73.71,99.65 35.23,113.08 "
   id="polygon12" />
		<path
   fill="#29b6f6"
   d="m 27.18,96.97 c 0,7.18 0.9,8.94 4.47,12.53 l 3.58,3.58 h 80.54 L 76.4,68.34 27.18,24.49 Z"
   id="path14" />
		<path
   fill="#01579b"
   d="M 98.77,24.48 H 27.18 l 88.59,88.59 h 24.16 V 57.59 L 111.29,28.95 c -4.02,-4.03 -7.59,-4.47 -12.52,-4.47 z"
   id="path16" />
		<path
   opacity="0.2"
   fill="#ffffff"
   enable-background="new    "
   d="M 32.55,110.39 C 28.97,106.8 28.08,103.26 28.08,96.97 V 25.38 l -0.89,-0.89 v 72.48 c -0.01,6.29 -0.01,8.03 5.36,13.42 l 2.68,2.68 v 0 z"
   id="path18" />
		<polygon
   opacity="0.2"
   fill="#263238"
   enable-background="new    "
   points="139.93,57.59 139.04,56.7 139.04,112.18 114.88,112.18 115.77,113.08 139.93,113.08 "
   id="polygon20" />
		<path
   opacity="0.2"
   fill="#ffffff"
   enable-background="new    "
   d="m 111.3,28.96 c -4.44,-4.44 -8.07,-4.47 -13.42,-4.47 H 27.19 l 0.89,0.89 h 69.8 c 2.67,0 9.41,-0.45 13.42,3.58 z"
   id="path22" />
		
			<radialGradient
   id="SVGID_1_"
   cx="71.915001"
   cy="62.217098"
   r="68"
   gradientTransform="matrix(1,0,0,-1,0,131.4443)"
   gradientUnits="userSpaceOnUse">
			<stop
   offset="0"
   style="stop-color:#FFFFFF;stop-opacity:0.1"
   id="stop24" />
			<stop
   offset="1"
   style="stop-color:#FFFFFF;stop-opacity:0"
   id="stop26" />
		</radialGradient>
		<path
   opacity="0.2"
   fill="url(#SVGID_1_)"
   enable-background="new    "
   d="M 139.04,56.7 111.3,28.96 88.03,5.69 C 86,3.65 81.77,1.22 78.19,1.22 c -3.08,0 -6.1,0.62 -8.05,1.79 L 27.19,24.49 5.71,69.23 c -0.77,1.63 -1.79,4.46 -1.79,6.26 0,3.91 1.72,7.9 4.47,10.74 l 21.44,21.29 c 0.51,0.63 1.11,1.27 1.82,1.98 l 0.89,0.89 2.68,2.68 23.27,23.27 0.89,0.89 h 55.48 0.89 v -24.16 h 24.16 v -0.06 -55.42 z"
   id="path29"
   style="fill:url(#SVGID_1_)" />
	</g>
</g>
</svg>
